<?xml version="1.0" encoding="UTF-8" standalone="no"?>
<!-- Generator: Adobe Fireworks CS6, Export SVG Extension by Aaron Beall (http://fireworks.abeall.com) . Version: 0.6.1  -->

<svg
   xmlns:dc="http://purl.org/dc/elements/1.1/"
   xmlns:cc="http://creativecommons.org/ns#"
   xmlns:rdf="http://www.w3.org/1999/02/22-rdf-syntax-ns#"
   xmlns:svg="http://www.w3.org/2000/svg"
   xmlns="http://www.w3.org/2000/svg"
   xmlns:sodipodi="http://sodipodi.sourceforge.net/DTD/sodipodi-0.dtd"
   xmlns:inkscape="http://www.inkscape.org/namespaces/inkscape"
   id="bigplay-gradient.fw-Page%201"
   viewBox="0 0 100 200"
   version="1.1"
   xml:space="preserve"
   x="0px"
   y="0px"
   width="200"
   height="200"
   inkscape:version="0.48.4 r9939"
   sodipodi:docname="bigplay.svg"><metadata
     id="metadata55"><rdf:RDF><cc:Work
         rdf:about=""><dc:format>image/svg+xml</dc:format><dc:type
           rdf:resource="http://purl.org/dc/dcmitype/StillImage" /></cc:Work></rdf:RDF></metadata><sodipodi:namedview
     pagecolor="#ffffff"
     bordercolor="#666666"
     borderopacity="1"
     objecttolerance="10"
     gridtolerance="10"
     guidetolerance="10"
     inkscape:pageopacity="0"
     inkscape:pageshadow="2"
     inkscape:window-width="640"
     inkscape:window-height="480"
     id="namedview53"
     showgrid="false"
     inkscape:zoom="1.18"
     inkscape:cx="50"
     inkscape:cy="100"
     inkscape:window-x="0"
     inkscape:window-y="26"
     inkscape:window-maximized="0"
     inkscape:current-layer="bigplay-gradient.fw-Page%201" /><defs
     id="defs3"><radialGradient
       id="gradient1"
       cx="0.5"
       cy="0.5"
       r="0.5"><stop
         stop-color="#222222"
         stop-opacity="0"
         offset="70%"
         id="stop6" /><stop
         stop-color="#222222"
         stop-opacity="0.0118"
         offset="70.202%"
         id="stop8" /><stop
         stop-color="#333333"
         stop-opacity="1"
         offset="85%"
         id="stop10" /><stop
         stop-color="#333333"
         stop-opacity="0"
         offset="100%"
         id="stop12" /></radialGradient><radialGradient
       id="gradient2"
       cx="0.5"
       cy="0.5"
       r="0.5"><stop
         stop-color="#bbbbbb"
         stop-opacity="0"
         offset="70%"
         id="stop15" /><stop
         stop-color="#bbbbbb"
         stop-opacity="0.0118"
         offset="70.202%"
         id="stop17" /><stop
         stop-color="#bbbbbb"
         stop-opacity="1"
         offset="85%"
         id="stop19" /><stop
         stop-color="#bbbbbb"
         stop-opacity="0"
         offset="100%"
         id="stop21" /></radialGradient><filter
       id="filter1"
       x="-1"
       y="-1"
       width="3"
       height="3"
       color-interpolation-filters="sRGB"><!-- Glow --><feColorMatrix
         result="out"
         in="SourceGraphic"
         type="matrix"
         values="0 0 0 0 0  0 0 0 0 0  0 0 0 0 0  0 0 0 0.251 0"
         id="feColorMatrix24" /><feMorphology
         result="out"
         in="out"
         operator="dilate"
         radius="3"
         id="feMorphology26" /><feGaussianBlur
         result="out"
         in="out"
         stdDeviation="1.5"
         id="feGaussianBlur28" /><feBlend
         in="SourceGraphic"
         in2="out"
         mode="normal"
         result="Glow1"
         id="feBlend30" /></filter><filter
       id="filter2"
       x="-1"
       y="-1"
       width="3"
       height="3"
       color-interpolation-filters="sRGB"><!-- Glow --><feColorMatrix
         result="out"
         in="SourceGraphic"
         type="matrix"
         values="0 0 0 0.8667 0  0 0 0 0.8667 0  0 0 0 0.8667 0  0 0 0 0.251 0"
         id="feColorMatrix33" /><feMorphology
         result="out"
         in="out"
         operator="dilate"
         radius="3"
         id="feMorphology35" /><feGaussianBlur
         result="out"
         in="out"
         stdDeviation="1.5"
         id="feGaussianBlur37" /><feBlend
         in="SourceGraphic"
         in2="out"
         mode="normal"
         result="Glow2"
         id="feBlend39" /></filter></defs><g
     id="Background" /><g
     id="dark%20shadow"><path
       d="M 22,50 C 22,34.5358 34.5358,22 50,22 65.4642,22 78,34.5358 78,50 78,65.4642 65.4642,78 50,78 34.5358,78 22,65.4642 22,50 z M 5,50 C 5,74.8531 25.1469,95 50,95 74.8531,95 95,74.8531 95,50 95,25.1469 74.8531,5 50,5 25.1469,5 5,25.1469 5,50 z"
       id="path43"
       inkscape:connector-curvature="0"
       style="fill:url(#gradient1)" /><path
       d="m 22,150 c 0,-15.4642 12.5358,-28 28,-28 15.4642,0 28,12.5358 28,28 0,15.4642 -12.5358,28 -28,28 -15.4642,0 -28,-12.5358 -28,-28 z m -17,0 c 0,24.8531 20.1469,45 45,45 24.8531,0 45,-20.1469 45,-45 0,-24.8531 -20.1469,-45 -45,-45 -24.8531,0 -45,20.1469 -45,45 z"
       id="path45"
       inkscape:connector-curvature="0"
       style="fill:url(#gradient2)" /></g><g
     id="dark"><path
       id="Polygon"
       d="M 72.5,49.5 38.75,68.9856 38.75,30.0144 72.5,49.5 z"
       inkscape:connector-curvature="0"
       style="fill:#ffffff;filter:url(#filter1)" /><path
       id="Ellipse"
       d="M 13,50.5 C 13,29.7891 29.7891,13 50.5,13 71.2109,13 88,29.7891 88,50.5 88,71.2109 71.2109,88 50.5,88 29.7891,88 13,71.2109 13,50.5 z"
       inkscape:connector-curvature="0"
       style="fill:none;stroke:#ffffff;stroke-width:5" /></g><g
     id="light"><path
       id="Polygon2"
       d="m 72.5,149.5 -33.75,19.4856 0,-38.9712 L 72.5,149.5 z"
       inkscape:connector-curvature="0"
       style="fill:#ffffff;filter:url(#filter2)" /><path
       id="Ellipse2"
       d="M 13,150.5 C 13,129.7891 29.7891,113 50.5,113 71.2109,113 88,129.7891 88,150.5 88,171.211 71.2109,188 50.5,188 29.7891,188 13,171.211 13,150.5 z"
       inkscape:connector-curvature="0"
       style="fill:none;stroke:#ffffff;stroke-width:5" /></g></svg>