<?xml version="1.0" standalone="no"?>
<!DOCTYPE svg PUBLIC "-//W3C//DTD SVG 1.1//EN" "http://www.w3.org/Graphics/SVG/1.1/DTD/svg11.dtd">
<svg width="5461px" height="5461px" version="1.1" xmlns="http://www.w3.org/2000/svg" xmlns:xlink="http://www.w3.org/1999/xlink" xml:space="preserve" style="fill-rule:evenodd;clip-rule:evenodd;stroke-linecap:round;stroke-linejoin:round;stroke-miterlimit:1.41421;">
    <g>
        <g id="Logo">
            <g id="The Cube">
                <g>
                    <path d="M2725.01,388.949L2725.01,2912.34L220.316,2912.34L2725.01,388.949Z" style="fill:rgb(114,148,244);stroke-width:1px;stroke:rgb(114,148,244);"/>
                </g>
                <g>
                    <path d="M2725.01,5448.67L2725.01,2909.56L220.316,2909.56L2725.01,5448.67Z" style="fill:rgb(84,109,178);stroke-width:1px;stroke:rgb(84,109,178);"/>
                </g>
                <g>
                    <path d="M5240.99,2932.93L2720.15,2929.22L2723.9,389.627L5240.99,2932.93Z" style="fill:rgb(84,109,178);stroke-width:1px;stroke:rgb(84,109,178);"/>
                </g>
                <g>
                    <path d="M5241.02,2924.34L2720.18,2928.06L2723.9,5447.99L5241.02,2924.34Z" style="fill:rgb(48,63,106);stroke-width:1px;stroke:rgb(48,63,106);"/>
                </g>
            </g>
            <g>
                <path d="M740.623,3619.98C658.905,3697.61 619.848,4109.18 705.273,4177.91C765.754,4226.57 728.453,4162.6 820.148,4178.95C911.842,4195.31 911.447,4239.16 911.447,4239.16L1316.95,4263.8C1489.45,4256.51 1597.71,4210.03 1676.75,4145.74L1753.95,3814.73C1677.19,3664.95 1583.41,3626.4 1487.2,3603.74C1213.89,3586.34 883.511,3484.25 740.623,3619.98Z" style="fill:rgb(242,242,242);stroke-width:53.33px;stroke:black;"/>
                <path d="M848.756,3470.61C862.831,3322.64 893.333,3194.53 942.535,3136.29C1062.55,3070.64 1169.73,3056.87 1264.09,3094.99L1524.63,3115.64L1778.21,3115.64C1848.74,3113.05 1882.84,3163.47 1880.53,3266.91L1859.96,3569.52C1805.55,3685.16 1767.81,3608.54 1611.42,3656.6C1357.99,3734.48 1057.89,3651.71 809.133,3622.88L848.756,3470.61Z" style="fill:rgb(242,242,242);stroke-width:53.33px;stroke:black;"/>
                <path d="M1704.05,4145.58C1814.72,4319.93 1893.51,4308.74 2035.16,4112.02L2126.34,3838.44C2177.64,3707.5 2219.99,3614.71 2183.97,3524.44L2105.03,3484.21L1957.01,3497.94C1822.11,3491.84 1734.18,3653.66 1744.17,3751.21L1704.28,3945.91L1704.05,4145.58Z" style="fill:rgb(242,242,242);stroke-width:53.33px;stroke:black;"/>
                <path d="M1213.44,3015.8C1187.67,2938.03 1187.67,2870.1 1213.44,2812.03C1251.25,2760.14 1293.97,2728.59 1341.58,2717.37C1414.91,2662.08 1493.56,2656.08 1572.97,2657.12L1796.54,2657.12L2010.25,2637.97L2169.58,2694.87L2260.21,2774.67L2247.29,3027.49L2008.05,3093.14L1459.59,3073.34C1376.1,3089.15 1294.05,3069.97 1213.44,3015.8Z" style="fill:rgb(242,242,242);stroke-width:53.33px;stroke:black;"/>
                <path d="M2081.91,3406.81L2219.41,3187.56C2300.25,3113.86 2421.97,3031.95 2459.18,2988.62C2560.56,2942.38 2748.13,3054.9 2695.44,3165.68L2597.88,3276.11C2422.55,3436.57 2278.67,3544.46 2204.02,3536.67L2081.91,3406.81Z" style="fill:rgb(242,242,242);stroke-width:53.33px;stroke:black;"/>
                <path d="M3147.89,3027.71L2901.11,2953.7L2686.04,3001.88L2686.04,3221.13C2748.41,3219.11 2814.06,3237.72 2883.02,3276.96L3032.66,3351.74L3177.28,3425.13L3277.73,3308.67L3263.97,3112.55L3147.89,3027.71Z" style="fill:rgb(242,242,242);stroke-width:53.33px;stroke:black;"/>
                <path d="M3382.52,3266.37L3532.16,3340.3L3727.03,3455.53C3823.46,3527.72 3847.82,3602.27 3800.11,3679.18L3587.22,3834.85L3350.66,3582.9L3196.66,3429.3C3115,3385.52 3194.76,3330.97 3382.52,3266.37Z" style="fill:rgb(242,242,242);stroke-width:53.33px;stroke:black;"/>
                <path d="M3905.69,3733.18L3988.55,3927.62L4030.66,4138.93L3896.71,4229.45C3782.81,4230.66 3755.93,4166.57 3715.63,4106.84C3670.33,4047.08 3574.13,3949.51 3578.7,3845.31L3717.47,3735.77C3766.18,3671.15 3828.92,3670.28 3905.69,3733.18Z" style="fill:rgb(242,242,242);stroke-width:53.33px;stroke:black;"/>
                <g>
                    <path d="M1431.43,2573.25C1421.13,2512.92 1460.3,2452.14 1583.56,2390.9L1810.92,2335.82C1890.25,2331.65 1922.55,2368.36 1907.82,2445.96C1935.44,2512.37 1919.28,2562.23 1859.33,2595.54L1574.2,2642C1517.69,2650.62 1470.1,2627.71 1431.43,2573.25Z" style="fill:rgb(242,242,242);stroke-width:53.33px;stroke:black;"/>
                </g>
                <path d="M1667.39,2136.59L1865.14,2041.93L2081.91,1913.78L2538.49,1913.78C2619.34,1932.37 2660.62,1998.29 2662.3,2111.53C2696.85,2178.08 2674.48,2216.51 2595.18,2226.83L2150.66,2281.82L1842.01,2281.82C1697.09,2324.66 1638.88,2276.25 1667.39,2136.59Z" style="fill:rgb(242,242,242);stroke-width:53.33px;stroke:black;"/>
                <path d="M1957.86,2594.02C2100.4,2620.49 2219.31,2639.9 2291.72,2613.43L2602.68,2607.79C2759.9,2610.36 2870.05,2588.11 2933.15,2541.05C2922.39,2421.1 2875.88,2325.26 2793.62,2253.52C2713.56,2240.18 2631.57,2224.75 2524.73,2238.09C2433.61,2214.14 2301.21,2229.57 2150.42,2253.52C2099.29,2251.91 2038.25,2271.96 1967.3,2313.68L1957.86,2594.02Z" style="fill:rgb(242,242,242);stroke-width:53.33px;stroke:black;"/>
                <path d="M2388.54,2643.36C2304.94,2698 2280.27,2774.85 2314.53,2873.89C2341.5,2938.16 2405.15,2977.14 2505.47,2990.82L2785.73,2950.38C2893.67,2941.24 2990.15,2927.39 3006.37,2880.58L3008.06,2731.09C3009.74,2640.08 2902.08,2608.84 2744.43,2577.93L2388.54,2643.36Z" style="fill:rgb(242,242,242);stroke-width:53.33px;stroke:black;"/>
                <path d="M4075.43,4173.63C4234.73,4225 4394.37,4216.45 4554.06,4199.33L4718.32,4105.67C4751.23,4027.19 4764.97,3919.7 4759.54,3783.19L4684.76,3647.32L4548.88,3593.11L4336.52,3579.34L4036.36,3621.65C3914.72,3600.94 3868.04,3648.19 3896.33,3763.4L3971.19,3974.06L4075.43,4173.63Z" style="fill:rgb(242,242,242);stroke-width:53.33px;stroke:black;"/>
                <path d="M3838.02,3061.04L4091.6,3041.25L4222.3,3041.25C4386.46,3011.21 4491.45,3069.98 4490.67,3217.57C4552.78,3309.44 4563.09,3374.45 4514.56,3489.22C4484.49,3513.21 4435.29,3534.09 4252.26,3533.15L4132.05,3553.81L3937.86,3554.85L3782.11,3333.65L3838.02,3061.04Z" style="fill:rgb(242,242,242);stroke-width:53.33px;stroke:black;"/>
                <path d="M3671.29,3061.04L3348.88,3061.04C3235.59,3047.18 3156.17,3013.07 3110.61,2958.73C3056.02,2915.29 3029.08,2852.21 3029.8,2769.49C3006.94,2728.26 3022.97,2687.27 3077.9,2646.53L3317.79,2625.88L3953.25,2625.88L4047.83,2701.51L4150.99,2776.37L4199.17,2974.97C4083.62,3023.69 3998.78,3059.82 3944.67,3047.24C3892.05,3067.24 3800.92,3059.8 3671.29,3061.04Z" style="fill:rgb(242,242,242);stroke-width:53.33px;stroke:black;"/>
                <path d="M2914.43,2287.85L3319.43,2259.19L3562.01,2252.05C3588.69,2226.16 3677.83,2226.16 3829.44,2252.05C3913.9,2311.83 3945.99,2378.03 3925.72,2450.64C3930.54,2491.81 3905.87,2539.4 3851.71,2593.4L3371.15,2593.4C3270.41,2625.68 3183.38,2635.96 3110.08,2624.26C3038.36,2626.86 2974.09,2610.41 2917.27,2574.9L2886.19,2492.71L2914.43,2287.85Z" style="fill:rgb(242,242,242);stroke-width:53.33px;stroke:black;"/>
                <path d="M2659.21,1912.36C2721.36,1888.07 2793.71,1872.41 2876.26,1865.36C2982.65,1823.49 3147.35,1866.54 3262.81,1891.67C3342.57,1877.42 3403.9,1897.79 3446.79,1952.76C3489.44,1989.98 3554.87,2103.96 3512.21,2153.3C3517.53,2225.59 3495.72,2258.22 3446.79,2251.2L3186.32,2251.2L2891.37,2271.84C2791.29,2255.07 2736.85,2200.32 2728.04,2107.59C2698.19,2046.6 2675.25,1995.31 2659.21,1912.36Z" style="fill:rgb(242,242,242);stroke-width:53.33px;stroke:black;"/>
                <path d="M2261.07,1781.22C2283.33,1724.57 2335.86,1705.02 2392.71,1690.76C2500.05,1628.43 2742.5,1609.11 2806.9,1673.21L2866.31,1758.72C2862.23,1828.36 2833.92,1876.21 2742.58,1856.48L2399.6,1897.7C2303.21,1914.44 2260.94,1882.22 2261.07,1781.22Z" style="fill:rgb(242,242,242);stroke-width:53.33px;stroke:black;"/>
                <path d="M3718.38,3085.87C3824.21,3121.77 3835.66,3222.53 3833.61,3332.57C3885.97,3467.5 3868.41,3529.88 3780.94,3519.71C3662.3,3469.99 3453.33,3413.74 3387.7,3284.81C3265.74,3195.23 3303.4,3143.65 3346.5,3077.42L3718.38,3085.87Z" style="fill:rgb(242,242,242);stroke-width:53.33px;stroke:black;"/>
                <path d="M1917.07,3126.37C2094.02,2992.66 2180.24,3046.25 2193.06,3238.99L2131.32,3388.63C2055.74,3481.17 1982.6,3492.62 1911.91,3422.98C1880.27,3300.3 1859.75,3164.16 1917.07,3126.37Z" style="fill:rgb(242,242,242);stroke-width:53.33px;stroke:black;"/>
                <path d="M2814.04,1660.98L4401.33,-35.3551" style="fill:rgb(242,242,242);stroke-width:64px;stroke:black;"/>
                <path d="M2341.3,1682.63L643.562,-56.0287" style="fill:rgb(242,242,242);stroke-width:64px;stroke:black;"/>
            </g>
        </g>
    </g>
</svg>
